<svg width="72" height="12" viewBox="0 0 72 12" fill="none" xmlns="http://www.w3.org/2000/svg">
<g clip-path="url(#clip0_8_8079)">
<path d="M6.7124 0.58985L8.21583 3.76128L11.2947 4.08785C11.4505 4.10297 11.5983 4.16419 11.7192 4.2637C11.8401 4.3632 11.9286 4.49648 11.9734 4.64651C12.0182 4.79654 12.0173 4.95652 11.9707 5.10602C11.9242 5.25552 11.8342 5.38776 11.7121 5.48585L9.25726 7.50442L10.0167 10.8979C10.0506 11.0487 10.0394 11.2062 9.98449 11.3507C9.92956 11.4952 9.83331 11.6203 9.70775 11.7105C9.58219 11.8007 9.43286 11.852 9.27837 11.8579C9.12389 11.8638 8.97107 11.8242 8.83897 11.7439L6.00011 10.0167L3.15868 11.743C3.02652 11.8232 2.8737 11.8627 2.71924 11.8567C2.56478 11.8507 2.41548 11.7995 2.28991 11.7094C2.16434 11.6192 2.06802 11.4942 2.01294 11.3497C1.95786 11.2053 1.94645 11.0479 1.98011 10.897L2.74297 7.50442L0.288114 5.48585C0.166931 5.38749 0.077701 5.25534 0.0317456 5.10619C-0.0142099 4.95703 -0.0148188 4.79758 0.029996 4.64807C0.0748109 4.49857 0.163029 4.36575 0.283457 4.26646C0.403884 4.16718 0.551092 4.1059 0.706399 4.09042L3.7844 3.76385L5.28783 0.58985C5.35183 0.45513 5.45272 0.341321 5.5788 0.261634C5.70487 0.181947 5.85096 0.139648 6.00011 0.139648C6.14926 0.139648 6.29535 0.181947 6.42143 0.261634C6.54751 0.341321 6.6484 0.45513 6.7124 0.58985Z" fill="#FF9431"/>
</g>
<g clip-path="url(#clip1_8_8079)">
<path d="M21.7124 0.58985L23.2158 3.76128L26.2947 4.08785C26.4505 4.10297 26.5983 4.16419 26.7192 4.2637C26.8401 4.3632 26.9286 4.49648 26.9734 4.64651C27.0182 4.79654 27.0173 4.95652 26.9707 5.10602C26.9242 5.25552 26.8342 5.38776 26.7121 5.48585L24.2573 7.50442L25.0167 10.8979C25.0506 11.0487 25.0394 11.2062 24.9845 11.3507C24.9296 11.4952 24.8333 11.6203 24.7078 11.7105C24.5822 11.8007 24.4329 11.852 24.2784 11.8579C24.1239 11.8638 23.9711 11.8242 23.839 11.7439L21.0001 10.0167L18.1587 11.743C18.0265 11.8232 17.8737 11.8627 17.7192 11.8567C17.5648 11.8507 17.4155 11.7995 17.2899 11.7094C17.1643 11.6192 17.068 11.4942 17.0129 11.3497C16.9579 11.2053 16.9464 11.0479 16.9801 10.897L17.743 7.50442L15.2881 5.48585C15.1669 5.38749 15.0777 5.25534 15.0317 5.10619C14.9858 4.95703 14.9852 4.79758 15.03 4.64807C15.0748 4.49857 15.163 4.36575 15.2835 4.26646C15.4039 4.16718 15.5511 4.1059 15.7064 4.09042L18.7844 3.76385L20.2878 0.58985C20.3518 0.45513 20.4527 0.341321 20.5788 0.261634C20.7049 0.181947 20.851 0.139648 21.0001 0.139648C21.1493 0.139648 21.2954 0.181947 21.4214 0.261634C21.5475 0.341321 21.6484 0.45513 21.7124 0.58985Z" fill="#FF9431"/>
</g>
<g clip-path="url(#clip2_8_8079)">
<path d="M36.7124 0.58985L38.2158 3.76128L41.2947 4.08785C41.4505 4.10297 41.5983 4.16419 41.7192 4.2637C41.8401 4.3632 41.9286 4.49648 41.9734 4.64651C42.0182 4.79654 42.0173 4.95652 41.9707 5.10602C41.9242 5.25552 41.8342 5.38776 41.7121 5.48585L39.2573 7.50442L40.0167 10.8979C40.0506 11.0487 40.0394 11.2062 39.9845 11.3507C39.9296 11.4952 39.8333 11.6203 39.7078 11.7105C39.5822 11.8007 39.4329 11.852 39.2784 11.8579C39.1239 11.8638 38.9711 11.8242 38.839 11.7439L36.0001 10.0167L33.1587 11.743C33.0265 11.8232 32.8737 11.8627 32.7192 11.8567C32.5648 11.8507 32.4155 11.7995 32.2899 11.7094C32.1643 11.6192 32.068 11.4942 32.0129 11.3497C31.9579 11.2053 31.9464 11.0479 31.9801 10.897L32.743 7.50442L30.2881 5.48585C30.1669 5.38749 30.0777 5.25534 30.0317 5.10619C29.9858 4.95703 29.9852 4.79758 30.03 4.64807C30.0748 4.49857 30.163 4.36575 30.2835 4.26646C30.4039 4.16718 30.5511 4.1059 30.7064 4.09042L33.7844 3.76385L35.2878 0.58985C35.3518 0.45513 35.4527 0.341321 35.5788 0.261634C35.7049 0.181947 35.851 0.139648 36.0001 0.139648C36.1493 0.139648 36.2954 0.181947 36.4214 0.261634C36.5475 0.341321 36.6484 0.45513 36.7124 0.58985Z" fill="#FF9431"/>
</g>
<g clip-path="url(#clip3_8_8079)">
<path d="M51.7124 0.58985L53.2158 3.76128L56.2947 4.08785C56.4505 4.10297 56.5983 4.16419 56.7192 4.2637C56.8401 4.3632 56.9286 4.49648 56.9734 4.64651C57.0182 4.79654 57.0173 4.95652 56.9707 5.10602C56.9242 5.25552 56.8342 5.38776 56.7121 5.48585L54.2573 7.50442L55.0167 10.8979C55.0506 11.0487 55.0394 11.2062 54.9845 11.3507C54.9296 11.4952 54.8333 11.6203 54.7078 11.7105C54.5822 11.8007 54.4329 11.852 54.2784 11.8579C54.1239 11.8638 53.9711 11.8242 53.839 11.7439L51.0001 10.0167L48.1587 11.743C48.0265 11.8232 47.8737 11.8627 47.7192 11.8567C47.5648 11.8507 47.4155 11.7995 47.2899 11.7094C47.1643 11.6192 47.068 11.4942 47.0129 11.3497C46.9579 11.2053 46.9464 11.0479 46.9801 10.897L47.743 7.50442L45.2881 5.48585C45.1669 5.38749 45.0777 5.25534 45.0317 5.10619C44.9858 4.95703 44.9852 4.79758 45.03 4.64807C45.0748 4.49857 45.163 4.36575 45.2835 4.26646C45.4039 4.16718 45.5511 4.1059 45.7064 4.09042L48.7844 3.76385L50.2878 0.58985C50.3518 0.45513 50.4527 0.341321 50.5788 0.261634C50.7049 0.181947 50.851 0.139648 51.0001 0.139648C51.1493 0.139648 51.2954 0.181947 51.4214 0.261634C51.5475 0.341321 51.6484 0.45513 51.7124 0.58985Z" fill="#FF9431"/>
</g>
<g clip-path="url(#clip4_8_8079)">
<path d="M66.7124 0.58985L68.2158 3.76128L71.2947 4.08785C71.4505 4.10297 71.5983 4.16419 71.7192 4.2637C71.8401 4.3632 71.9286 4.49648 71.9734 4.64651C72.0182 4.79654 72.0173 4.95652 71.9707 5.10602C71.9242 5.25552 71.8342 5.38776 71.7121 5.48585L69.2573 7.50442L70.0167 10.8979C70.0506 11.0487 70.0394 11.2062 69.9845 11.3507C69.9296 11.4952 69.8333 11.6203 69.7078 11.7105C69.5822 11.8007 69.4329 11.852 69.2784 11.8579C69.1239 11.8638 68.9711 11.8242 68.839 11.7439L66.0001 10.0167L63.1587 11.743C63.0265 11.8232 62.8737 11.8627 62.7192 11.8567C62.5648 11.8507 62.4155 11.7995 62.2899 11.7094C62.1643 11.6192 62.068 11.4942 62.0129 11.3497C61.9579 11.2053 61.9464 11.0479 61.9801 10.897L62.743 7.50442L60.2881 5.48585C60.1669 5.38749 60.0777 5.25534 60.0317 5.10619C59.9858 4.95703 59.9852 4.79758 60.03 4.64807C60.0748 4.49857 60.163 4.36575 60.2835 4.26646C60.4039 4.16718 60.5511 4.1059 60.7064 4.09042L63.7844 3.76385L65.2878 0.58985C65.3518 0.45513 65.4527 0.341321 65.5788 0.261634C65.7049 0.181947 65.851 0.139648 66.0001 0.139648C66.1493 0.139648 66.2954 0.181947 66.4214 0.261634C66.5475 0.341321 66.6484 0.45513 66.7124 0.58985Z" fill="#C5C3C8"/>
<mask id="mask0_8_8079" style="mask-type:alpha" maskUnits="userSpaceOnUse" x="59" y="0" width="14" height="12">
<path d="M66.7122 0.58985L68.2156 3.76128L71.2944 4.08785C71.4503 4.10297 71.5981 4.16419 71.719 4.2637C71.8399 4.3632 71.9284 4.49648 71.9732 4.64651C72.018 4.79654 72.017 4.95652 71.9705 5.10602C71.9239 5.25552 71.8339 5.38776 71.7119 5.48585L69.257 7.50442L70.0164 10.8979C70.0504 11.0487 70.0392 11.2062 69.9842 11.3507C69.9293 11.4952 69.8331 11.6203 69.7075 11.7105C69.5819 11.8007 69.4326 11.852 69.2781 11.8579C69.1236 11.8638 68.9708 11.8242 68.8387 11.7439L65.9999 10.0167L63.1584 11.743C63.0263 11.8232 62.8735 11.8627 62.719 11.8567C62.5645 11.8507 62.4152 11.7995 62.2897 11.7094C62.1641 11.6192 62.0678 11.4942 62.0127 11.3497C61.9576 11.2053 61.9462 11.0479 61.9799 10.897L62.7427 7.50442L60.2879 5.48585C60.1667 5.38749 60.0775 5.25534 60.0315 5.10619C59.9855 4.95703 59.9849 4.79758 60.0298 4.64807C60.0746 4.49857 60.1628 4.36575 60.2832 4.26646C60.4036 4.16718 60.5508 4.1059 60.7062 4.09042L63.7842 3.76385L65.2876 0.58985C65.3516 0.45513 65.4525 0.341321 65.5786 0.261634C65.7046 0.181947 65.8507 0.139648 65.9999 0.139648C66.149 0.139648 66.2951 0.181947 66.4212 0.261634C66.5473 0.341321 66.6482 0.45513 66.7122 0.58985Z" fill="#FF9431"/>
</mask>
<g mask="url(#mask0_8_8079)">
<rect x="66" width="6" height="12" fill="#C5C3C8"/>
</g>
</g>
<defs>
<clipPath id="clip0_8_8079">
<rect width="12" height="12" fill="white"/>
</clipPath>
<clipPath id="clip1_8_8079">
<rect width="12" height="12" fill="white" transform="translate(15)"/>
</clipPath>
<clipPath id="clip2_8_8079">
<rect width="12" height="12" fill="white" transform="translate(30)"/>
</clipPath>
<clipPath id="clip3_8_8079">
<rect width="12" height="12" fill="white" transform="translate(45)"/>
</clipPath>
<clipPath id="clip4_8_8079">
<rect width="12" height="12" fill="white" transform="translate(60)"/>
</clipPath>
</defs>
</svg>
