<svg width="20" height="18" viewBox="0 0 20 18" fill="none" xmlns="http://www.w3.org/2000/svg">
<path d="M19 14H15" stroke="#7A7680" stroke-width="1.5" stroke-linecap="round" stroke-linejoin="round"/>
<path d="M9 14H1" stroke="#7A7680" stroke-width="1.5" stroke-linecap="round" stroke-linejoin="round"/>
<path d="M14.1213 11.8787C15.2929 13.0504 15.2929 14.9496 14.1213 16.1213C12.9496 17.2929 11.0504 17.2929 9.87873 16.1213C8.70709 14.9496 8.70709 13.0504 9.87873 11.8787C11.0504 10.7071 12.9496 10.7071 14.1213 11.8787" stroke="#7A7680" stroke-width="1.5" stroke-linecap="round" stroke-linejoin="round"/>
<path d="M1 4H5" stroke="#7A7680" stroke-width="1.5" stroke-linecap="round" stroke-linejoin="round"/>
<path d="M10.1213 1.87873C11.2929 3.05038 11.2929 4.94962 10.1213 6.12127C8.94962 7.29291 7.05038 7.29291 5.87873 6.12127C4.70709 4.94962 4.70709 3.05038 5.87873 1.87873C7.05038 0.707088 8.94962 0.707088 10.1213 1.87873" stroke="#7A7680" stroke-width="1.5" stroke-linecap="round" stroke-linejoin="round"/>
<path d="M11 4H19" stroke="#7A7680" stroke-width="1.5" stroke-linecap="round" stroke-linejoin="round"/>
</svg>
