<svg width="16" height="16" viewBox="0 0 16 16" fill="none" xmlns="http://www.w3.org/2000/svg">
<path fill-rule="evenodd" clip-rule="evenodd" d="M2.16683 8.83268C1.70641 8.83268 1.3335 8.45977 1.3335 7.99935C1.3335 7.53893 1.70641 7.16602 2.16683 7.16602C2.62725 7.16602 3.00016 7.53893 3.00016 7.99935C3.00016 8.45977 2.62725 8.83268 2.16683 8.83268Z" fill="white" stroke="white" stroke-width="1.5" stroke-linecap="round" stroke-linejoin="round"/>
<path fill-rule="evenodd" clip-rule="evenodd" d="M8.00033 8.83268C7.53991 8.83268 7.16699 8.45977 7.16699 7.99935C7.16699 7.53893 7.53991 7.16602 8.00033 7.16602C8.46074 7.16602 8.83366 7.53893 8.83366 7.99935C8.83366 8.45977 8.46074 8.83268 8.00033 8.83268Z" fill="white" stroke="white" stroke-width="1.5" stroke-linecap="round" stroke-linejoin="round"/>
<path fill-rule="evenodd" clip-rule="evenodd" d="M13.8333 8.83268C13.3729 8.83268 13 8.45977 13 7.99935C13 7.53893 13.3729 7.16602 13.8333 7.16602C14.2937 7.16602 14.6667 7.53893 14.6667 7.99935C14.6667 8.45977 14.2937 8.83268 13.8333 8.83268Z" fill="white" stroke="white" stroke-width="1.5" stroke-linecap="round" stroke-linejoin="round"/>
<path fill-rule="evenodd" clip-rule="evenodd" d="M2.16683 14.6667C1.70641 14.6667 1.3335 14.2937 1.3335 13.8333C1.3335 13.3729 1.70641 13 2.16683 13C2.62725 13 3.00016 13.3729 3.00016 13.8333C3.00016 14.2937 2.62725 14.6667 2.16683 14.6667Z" fill="white" stroke="white" stroke-width="1.5" stroke-linecap="round" stroke-linejoin="round"/>
<path fill-rule="evenodd" clip-rule="evenodd" d="M8.00033 14.6667C7.53991 14.6667 7.16699 14.2937 7.16699 13.8333C7.16699 13.3729 7.53991 13 8.00033 13C8.46074 13 8.83366 13.3729 8.83366 13.8333C8.83366 14.2937 8.46074 14.6667 8.00033 14.6667Z" fill="white" stroke="white" stroke-width="1.5" stroke-linecap="round" stroke-linejoin="round"/>
<path fill-rule="evenodd" clip-rule="evenodd" d="M13.8333 14.6667C13.3729 14.6667 13 14.2937 13 13.8333C13 13.3729 13.3729 13 13.8333 13C14.2937 13 14.6667 13.3729 14.6667 13.8333C14.6667 14.2937 14.2937 14.6667 13.8333 14.6667Z" fill="white" stroke="white" stroke-width="1.5" stroke-linecap="round" stroke-linejoin="round"/>
<path fill-rule="evenodd" clip-rule="evenodd" d="M2.16683 2.99967C1.70641 2.99967 1.3335 2.62676 1.3335 2.16634C1.3335 1.70592 1.70641 1.33301 2.16683 1.33301C2.62725 1.33301 3.00016 1.70592 3.00016 2.16634C3.00016 2.62676 2.62725 2.99967 2.16683 2.99967Z" fill="white" stroke="white" stroke-width="1.5" stroke-linecap="round" stroke-linejoin="round"/>
<path fill-rule="evenodd" clip-rule="evenodd" d="M8.00033 2.99967C7.53991 2.99967 7.16699 2.62676 7.16699 2.16634C7.16699 1.70592 7.53991 1.33301 8.00033 1.33301C8.46074 1.33301 8.83366 1.70592 8.83366 2.16634C8.83366 2.62676 8.46074 2.99967 8.00033 2.99967Z" fill="white" stroke="white" stroke-width="1.5" stroke-linecap="round" stroke-linejoin="round"/>
<path fill-rule="evenodd" clip-rule="evenodd" d="M13.8333 2.99967C13.3729 2.99967 13 2.62676 13 2.16634C13 1.70592 13.3729 1.33301 13.8333 1.33301C14.2937 1.33301 14.6667 1.70592 14.6667 2.16634C14.6667 2.62676 14.2937 2.99967 13.8333 2.99967Z" fill="white" stroke="white" stroke-width="1.5" stroke-linecap="round" stroke-linejoin="round"/>
</svg>
